<svg version="1.1" id="layer" xmlns="http://www.w3.org/2000/svg" xmlns:xlink="http://www.w3.org/1999/xlink" x="0px" y="0px"
	 viewBox="0 0 652 652" style="enable-background:new 0 0 652 652;" xml:space="preserve">
<style type="text/css">
	.st0{fill:#29AAE1;}
</style>
<g>
	<path class="st0" d="M415.6,390c-28.6,0-49.4-23.1-49.4-55l0-52.3h20.9V335c0,21.6,11,35,28.7,35c17.7,0,28.6-13.4,28.6-35
		l-0.1-52.4h21V335C465.4,366.9,444.5,390,415.6,390 M484.8,282.7h20.9V387h-20.9L484.8,282.7z M203.5,371.2
		c-19.5,0-35.3-15.8-35.3-35.3s15.8-35.3,35.3-35.3c9.2,0,17.6,3.6,23.9,9.4c2.5-6.4,5.8-12.4,10-17.8c-9.4-7.3-21.1-11.6-33.9-11.6
		c-30.6,0-55.3,24.8-55.3,55.3c0,30.6,24.8,55.3,55.3,55.3c12.8,0,24.5-4.4,33.9-11.6c-4.1-5.4-7.5-11.4-10-17.8
		C221.1,367.6,212.7,371.2,203.5,371.2 M574.1,297.7c-9.3,0-17.1,3.6-23.4,10.6c-6.1,7-9.2,15.8-9.2,26.1c0,10.9,3,20,8.9,26.9
		c6.2,7.1,14,10.7,23.4,10.7c9.9,0,18.1-3.5,24.2-10.4c6.1-7,9.2-16,9.2-26.7c0-10.7-3.1-19.7-9.2-26.7
		C592,301.2,583.9,297.7,574.1,297.7L574.1,297.7z M570.1,389.8c-14.3,0-26.2-5.2-35.6-15.5c-9.3-10.6-14-24-14-40
		c0-15.6,4.7-28.8,14-39.2c9.2-10.3,21-15.5,34.9-15.5c11.9,0,22.8,5,32.4,14.9l4,4.1v-16h20.6v104.1h-20.6v-14.4l-3.9,3.6
		C592,385.2,581.3,389.8,570.1,389.8L570.1,389.8z M298,280.6c-0.1,0-0.2,0-0.3,0c-1-0.1-1.3,0.4-0.9,1.1c0,0.1,0.1,0.2,0.2,0.3
		c1.9,4.1,7,14.2,15.7,21.1c11.3,8.9,18.2,19.5,18.2,32.7c0,16.8-13.2,35.2-34.7,35.2c-21.6,0-34.7-18.4-34.7-35.2
		c0-13.2,6.9-23.8,18.2-32.7c8.9-7,14.1-17.3,15.8-21.3c0.4-0.8,0.2-1.3-0.7-1.3h-0.2c-30,0.6-54.2,25.2-54.2,55.3
		c0,24.7,20.9,53.4,54.7,53.4c33.8,0,56.1-23,56.1-53.4C351.1,305.5,327.5,281.8,298,280.6"/>
	<path class="st0" d="M336.9,352.5l-14.3,15.1l20.3,19.2h30.3L336.9,352.5 M64.8,350.1l24.4-54l24.4,54H64.8L64.8,350.1z M130.2,387
		H152L97.2,265.6c-1.4-3.1-4.5-5.2-8-5.2c-3.6,0-6.6,2.1-8,5.2L26.3,387h21.8l7.9-17.4h66.3C122.3,369.7,130.2,387,130.2,387z"/>
</g>
</svg>
