<svg
   xmlns:dc="http://purl.org/dc/elements/1.1/"
   xmlns:cc="http://creativecommons.org/ns#"
   xmlns:rdf="http://www.w3.org/1999/02/22-rdf-syntax-ns#"
   xmlns:svg="http://www.w3.org/2000/svg"
   xmlns="http://www.w3.org/2000/svg"
   xmlns:sodipodi="http://sodipodi.sourceforge.net/DTD/sodipodi-0.dtd"
   xmlns:inkscape="http://www.inkscape.org/namespaces/inkscape"
   xml:space="preserve"
   width="755.99994"
   height="165"
   style="fill-rule:evenodd"
   viewBox="0 0 8.4 1.8333337"
   id="svg3060"
   version="1.1"
   inkscape:version="0.48.4 r9939"
   sodipodi:docname="CPanel_new_logo.svg"><metadata
   id="metadata3079"><rdf:RDF><cc:Work
       rdf:about=""><dc:format>image/svg+xml</dc:format><dc:type
         rdf:resource="http://purl.org/dc/dcmitype/StillImage" /><dc:title></dc:title></cc:Work></rdf:RDF></metadata><sodipodi:namedview
   pagecolor="#ffffff"
   bordercolor="#666666"
   borderopacity="1"
   objecttolerance="10"
   gridtolerance="10"
   guidetolerance="10"
   inkscape:pageopacity="0"
   inkscape:pageshadow="2"
   inkscape:window-width="1366"
   inkscape:window-height="705"
   id="namedview3077"
   showgrid="false"
   inkscape:zoom="1.0700135"
   inkscape:cx="436.5853"
   inkscape:cy="120.90635"
   inkscape:window-x="-8"
   inkscape:window-y="-8"
   inkscape:window-maximized="1"
   inkscape:current-layer="svg3060" />
 <defs
   id="defs3062">
  <style
   type="text/css"
   id="style3064">
   
    .fil0 {fill:#FA6E1C;fill-rule:nonzero}
   
  </style>
 <clipPath
   clipPathUnits="userSpaceOnUse"
   id="clipPath2999"><path
     inkscape:connector-curvature="0"
     d="m 0,792 1476.333,0 0,-792 L 0,0 0,792 z"
     id="path3001" /></clipPath></defs>
 
<g
   transform="matrix(0.00573329,0,0,-0.00573329,-0.00240934,2.9857427)"
   id="g2995"
   style="fill:#ff6c2c;fill-opacity:1"><g
     id="g2997"
     clip-path="url(#clipPath2999)"
     transform="matrix(1.2784963,0,0,1.2784963,-209.47983,-146.26568)"
     style="fill:#ff6c2c;fill-opacity:1"><g
       id="g3003"
       transform="translate(259.5664,456.9004)"
       style="fill:#ff6c2c;fill-opacity:1"><path
         d="m 0,0 67.799,0 -10.5,-40.2 c -1.604,-5.602 -4.604,-10.102 -9,-13.5 -4.401,-3.404 -9.502,-5.101 -15.299,-5.101 l -31.5,0 c -7.201,0 -13.553,-2.099 -19.051,-6.3 -5.504,-4.2 -9.351,-9.899 -11.551,-17.099 -1.4,-5.401 -1.55,-10.501 -0.449,-15.3 1.098,-4.801 3.047,-9.053 5.85,-12.75 2.799,-3.703 6.398,-6.652 10.801,-8.852 4.396,-2.203 9.197,-3.298 14.4,-3.298 l 19.199,0 c 3.6,0 6.549,-1.454 8.85,-4.35 2.297,-2.902 2.949,-6.15 1.951,-9.75 l -12,-44.4 -21,0 c -14.4,0 -27.652,3.15 -39.75,9.449 -12.104,6.301 -22.154,14.648 -30.15,25.051 -8.002,10.396 -13.454,22.246 -16.35,35.548 -2.902,13.299 -2.551,26.95 1.049,40.952 l 1.201,4.5 c 2.596,9.599 6.646,18.45 12.148,26.549 5.5,8.101 12,15 19.5,20.701 7.5,5.7 15.85,10.148 25.051,13.349 C -19.604,-1.604 -10.004,0 0,0"
         style="fill:#ff6c2c;fill-opacity:1;fill-rule:nonzero;stroke:none"
         id="path3005"
         inkscape:connector-curvature="0" /></g><g
       id="g3007"
       transform="translate(293.7637,276)"
       style="fill:#ff6c2c;fill-opacity:1"><path
         d="m 0,0 59.1,221.4 c 1.597,5.597 4.597,10.097 9,13.5 4.396,3.399 9.496,5.1 15.3,5.1 l 62.7,0 c 14.4,0 27.646,-3.15 39.75,-9.45 12.097,-6.3 22.148,-14.654 30.15,-25.05 7.996,-10.401 13.5,-22.252 16.5,-35.55 3,-13.304 2.596,-26.953 -1.201,-40.95 l -1.199,-4.5 c -2.602,-9.6 -6.6,-18.45 -12,-26.55 -5.401,-8.1 -11.85,-15.052 -19.35,-20.85 -7.5,-5.803 -15.854,-10.303 -25.051,-13.5 -9.201,-3.202 -18.801,-4.801 -28.799,-4.801 l -54.3,0 10.8,40.501 c 1.598,5.4 4.598,9.797 9,13.2 4.397,3.398 9.496,5.1 15.299,5.1 l 17.401,0 c 7.199,0 13.65,2.199 19.349,6.6 5.701,4.397 9.451,10.097 11.25,17.1 1.397,4.997 1.547,9.9 0.451,14.7 -1.101,4.8 -3.052,9.047 -5.851,12.75 -2.803,3.698 -6.403,6.698 -10.799,9 -4.402,2.297 -9.201,3.45 -14.4,3.45 l -33.6,0 L 65.699,18.299 C 64.096,12.9 61.096,8.498 56.699,5.1 52.299,1.697 47.297,0 41.699,0 L 0,0 z"
         style="fill:#ff6c2c;fill-opacity:1;fill-rule:nonzero;stroke:none"
         id="path3009"
         inkscape:connector-curvature="0" /></g><g
       id="g3011"
       transform="translate(667.8594,394.2002)"
       style="fill:#ff6c2c;fill-opacity:1"><path
         d="M 0,0 0.9,3.3 C 1.299,4.898 1.051,6.248 0.15,7.35 -0.75,8.446 -2,9 -3.6,9 l -97.5,0 c -4.199,0 -8.002,0.899 -11.4,2.7 -3.402,1.8 -6.201,4.149 -8.398,7.05 -2.204,2.896 -3.704,6.248 -4.5,10.05 -0.803,3.797 -0.704,7.697 0.298,11.7 l 6,22.8 132,0 c 8.2,0 15.7,-1.8 22.5,-5.401 C 42.197,54.3 47.852,49.599 52.352,43.8 56.852,37.997 59.949,31.35 61.65,23.85 63.348,16.35 63.197,8.597 61.201,0.6 L 37.5,-87.601 c -2.398,-9 -7.25,-16.302 -14.549,-21.9 -7.303,-5.602 -15.652,-8.4 -25.051,-8.4 l -97.5,0.3 c -8.601,0 -16.5,1.848 -23.699,5.551 -7.201,3.697 -13.101,8.596 -17.701,14.699 -4.602,6.098 -7.799,13.098 -9.6,21 -1.798,7.899 -1.597,15.948 0.6,24.151 l 1.201,4.5 c 1.397,5.596 3.75,10.799 7.049,15.599 3.301,4.801 7.148,8.898 11.551,12.301 4.396,3.399 9.301,6.047 14.699,7.949 5.4,1.899 11.102,2.851 17.102,2.851 l 81.898,0 -6,-22.501 c -1.602,-5.4 -4.602,-9.801 -9,-13.199 -4.4,-3.404 -9.402,-5.1 -15,-5.1 l -36.6,0 c -3.402,0 -5.601,-1.703 -6.599,-5.101 -0.6,-2.203 -0.201,-4.153 1.199,-5.85 1.398,-1.701 3.197,-2.549 5.4,-2.549 l 59.1,0 c 2.199,0 4.098,0.6 5.701,1.799 1.598,1.201 2.596,2.799 3,4.801 l 0.6,2.4 L 0,0 z"
         style="fill:#ff6c2c;fill-opacity:1;fill-rule:nonzero;stroke:none"
         id="path3013"
         inkscape:connector-curvature="0" /></g><g
       id="g3015"
       transform="translate(842.4609,456.9004)"
       style="fill:#ff6c2c;fill-opacity:1"><path
         d="m 0,0 c 14.594,0 27.945,-3.15 40.047,-9.45 12.101,-6.3 22.148,-14.654 30.152,-25.05 7.996,-10.402 13.449,-22.304 16.348,-35.7 2.898,-13.402 2.449,-27.105 -1.348,-41.101 l -15,-56.4 c -1.004,-4.002 -3.152,-7.199 -6.449,-9.6 -3.301,-2.4 -6.953,-3.599 -10.953,-3.599 l -32.399,0 c -3.8,0 -6.8,1.447 -9,4.349 -2.203,2.897 -2.804,6.151 -1.8,9.75 l 18,68.1 c 1.398,4.998 1.547,9.9 0.449,14.701 -1.102,4.8 -3.051,9.047 -5.848,12.75 -2.804,3.698 -6.402,6.698 -10.801,9 -4.402,2.297 -9.203,3.449 -14.398,3.449 l -33.602,0 -29.101,-108.9 c -1,-4.002 -3.149,-7.199 -6.449,-9.6 -3.301,-2.4 -7.051,-3.599 -11.25,-3.599 l -32.1,0 c -3.6,0 -6.553,1.447 -8.85,4.349 -2.296,2.897 -2.949,6.151 -1.951,9.75 L -81.902,0 0,0 z"
         style="fill:#ff6c2c;fill-opacity:1;fill-rule:nonzero;stroke:none"
         id="path3017"
         inkscape:connector-curvature="0" /></g><g
       id="g3019"
       transform="translate(1019.1562,399.75)"
       style="fill:#ff6c2c;fill-opacity:1"><path
         d="m 0,0 c -2.398,-1.903 -4.102,-4.35 -5.1,-7.35 l -13.5,-51 c -0.8,-2.804 -0.298,-5.4 1.5,-7.8 1.801,-2.401 4.202,-3.6 7.202,-3.6 l 124.199,0 -9.6,-35.701 c -1.603,-5.399 -4.603,-9.801 -9,-13.199 -4.402,-3.403 -9.404,-5.1 -15,-5.1 l -113.099,0 c -8.204,0 -15.704,1.748 -22.5,5.25 -6.803,3.496 -12.452,8.197 -16.952,14.1 -4.5,5.896 -7.603,12.599 -9.298,20.099 -1.698,7.5 -1.45,15.151 0.75,22.951 L -62.1,6.75 c 1.998,7.396 5.1,14.198 9.301,20.4 4.199,6.197 9.151,11.498 14.85,15.9 5.699,4.397 12.097,7.846 19.199,10.35 7.098,2.498 14.447,3.75 22.051,3.75 l 80.099,0 c 8.2,0 15.7,-1.8 22.5,-5.4 6.797,-3.6 12.452,-8.302 16.952,-14.1 4.5,-5.803 7.546,-12.502 9.148,-20.1 1.6,-7.603 1.398,-15.3 -0.6,-23.1 l -5.4,-20.4 c -2.398,-9.001 -7.25,-16.251 -14.549,-21.751 -7.303,-5.502 -15.553,-8.25 -24.75,-8.25 l -90.599,0 6,22.201 c 1.396,5.4 4.296,9.797 8.699,13.2 4.396,3.399 9.496,5.1 15.301,5.1 l 36.599,0 c 3.399,0 5.596,1.697 6.6,5.1 l 1.199,4.5 c 0.602,2.199 0.197,4.2 -1.199,6 -1.403,1.8 -3.201,2.7 -5.401,2.7 l -55.798,0 C 5.102,2.85 2.4,1.898 0,0"
         style="fill:#ff6c2c;fill-opacity:1;fill-rule:nonzero;stroke:none"
         id="path3021"
         inkscape:connector-curvature="0" /></g><g
       id="g3023"
       transform="translate(1133.1523,276)"
       style="fill:#ff6c2c;fill-opacity:1"><path
         d="m 0,0 60.299,226.5 c 0.998,3.998 3.15,7.247 6.451,9.75 3.299,2.498 7.049,3.75 11.25,3.75 l 32.1,0 c 3.796,0 6.847,-1.453 9.15,-4.35 2.297,-2.902 2.947,-6.15 1.949,-9.75 l -45,-167.101 C 73.996,49.996 70.447,42 65.549,34.799 60.646,27.6 54.848,21.449 48.148,16.35 41.445,11.25 33.998,7.246 25.799,4.35 17.596,1.447 9,0 0,0"
         style="fill:#ff6c2c;fill-opacity:1;fill-rule:nonzero;stroke:none"
         id="path3025"
         inkscape:connector-curvature="0" /></g><g
       id="g3027"
       transform="translate(1282.3691,496.2852)"
       style="fill:#ff6c2c;fill-opacity:1"><path
         d="M 0,0 2.953,0 C 4.412,0 5.582,0.378 6.467,1.135 7.352,1.891 7.793,2.853 7.793,4.02 7.793,5.387 7.4,6.366 6.617,6.959 5.834,7.551 4.594,7.848 2.898,7.848 L 0,7.848 0,0 z M 11.867,4.129 C 11.867,2.67 11.48,1.381 10.705,0.26 9.93,-0.861 8.842,-1.695 7.437,-2.242 l 6.508,-10.801 -4.593,0 -5.661,9.68 -3.691,0 0,-9.68 -4.047,0 0,24.363 7.137,0 c 3.025,0 5.246,-0.592 6.658,-1.777 1.412,-1.186 2.119,-2.99 2.119,-5.414 m -26.031,-4.977 c 0,-3.154 0.793,-6.102 2.379,-8.845 1.586,-2.745 3.75,-4.905 6.494,-6.481 2.744,-1.577 5.684,-2.365 8.818,-2.365 3.172,0 6.116,0.793 8.832,2.379 2.717,1.586 4.871,3.732 6.467,6.439 1.596,2.707 2.393,5.664 2.393,8.873 0,3.172 -0.793,6.116 -2.379,8.832 -1.586,2.716 -3.733,4.871 -6.44,6.467 -2.707,1.595 -5.664,2.393 -8.873,2.393 -3.172,0 -6.115,-0.793 -8.832,-2.379 -2.716,-1.586 -4.871,-3.733 -6.466,-6.44 -1.596,-2.707 -2.393,-5.665 -2.393,-8.873 m -2.871,0 c 0,3.646 0.912,7.064 2.734,10.254 1.822,3.19 4.33,5.705 7.52,7.547 3.189,1.841 6.627,2.762 10.308,2.762 3.647,0 7.065,-0.912 10.254,-2.735 3.19,-1.823 5.705,-4.33 7.547,-7.519 1.842,-3.19 2.762,-6.627 2.762,-10.309 0,-3.591 -0.885,-6.964 -2.653,-10.117 -1.767,-3.154 -4.248,-5.679 -7.437,-7.574 -3.189,-1.897 -6.682,-2.844 -10.473,-2.844 -3.773,0 -7.256,0.944 -10.445,2.83 -3.189,1.887 -5.674,4.407 -7.451,7.561 -1.777,3.153 -2.666,6.535 -2.666,10.144"
         style="fill:#ff6c2c;fill-opacity:1;fill-rule:nonzero;stroke:none"
         id="path3029"
         inkscape:connector-curvature="0" /></g></g></g><path
   style="fill:#ff6c2c;fill-opacity:1"
   d="m 88.779385,152.23093 c 1.350153,-4.90674 9.966318,-37.1722 19.147035,-71.701048 9.18072,-34.528843 17.33541,-64.430724 18.12154,-66.448623 0.78613,-2.017899 3.28373,-4.9916752 5.55023,-6.608391 3.75645,-2.6795147 5.95687,-2.9808434 24.8803,-3.4071431 35.98824,-0.8107287 49.44401,2.6110439 64.27957,16.3461551 15.76789,14.598286 21.93451,35.120976 16.69001,55.544864 -6.16181,23.996217 -22.66302,40.524986 -45.29229,45.367926 -3.85213,0.8244 -15.81198,1.49891 -26.57746,1.49891 l -19.5736,0 3.80323,-13.99219 c 5.66295,-20.834131 7.24803,-22.282957 25.72434,-23.513082 12.74366,-0.848454 18.4701,-3.679086 22.71217,-11.226833 5.82381,-10.362063 2.77625,-21.911206 -7.63289,-28.925925 -4.14517,-2.793431 -5.72945,-3.015316 -19.0984,-2.674808 l -14.57826,0.371311 -14.62243,54.188807 c -8.04234,29.80384 -15.36124,55.52085 -16.26422,57.1489 -3.05074,5.50038 -8.17684,6.95249 -24.54296,6.95249 l -15.180737,0 2.454822,-8.92132 0,0 z"
   id="path3202"
   inkscape:connector-curvature="0"
   transform="matrix(0.01111111,0,0,0.01111111,-5.0091573e-7,0)" /><path
   style="fill:#ff6c2c;fill-opacity:1"
   d="m 257.96577,159.94537 c -9.19395,-2.87443 -17.29343,-9.74554 -21.94671,-18.61829 -3.5907,-6.84665 -3.30879,-21.18668 0.58462,-29.73776 3.93205,-8.63596 8.63,-13.499805 16.74477,-17.336069 6.34316,-2.998733 7.8194,-3.124639 36.78159,-3.137032 l 30.17319,-0.01291 -0.89987,4.295454 c -1.62188,7.741948 -5.51421,15.061808 -9.5294,17.920878 -3.39225,2.41549 -6.12333,2.86074 -19.52021,3.18241 -13.14085,0.31551 -15.80379,0.7356 -17.03221,2.68692 -1.06043,1.68446 -1.06014,2.94141 0.001,4.62587 1.26831,2.01322 4.11386,2.35999 21.95934,2.67605 11.27621,0.19971 21.94363,-0.18492 23.70536,-0.85473 2.82572,-1.07434 3.87306,-3.73068 8.88826,-22.5431 3.12681,-11.728899 5.34999,-22.198552 4.94041,-23.265901 -0.62877,-1.638539 -6.17291,-1.940634 -35.61519,-1.940634 -34.10941,0 -34.9681,-0.06577 -39.34215,-3.013446 -7.96783,-5.36952 -9.27866,-12.08279 -5.15367,-26.393894 l 1.42859,-4.956293 46.87186,0 c 44.99859,0 47.11005,0.111967 52.83194,2.801573 11.10278,5.21892 19.12299,17.432878 19.12299,29.12234 0,5.929674 -16.67937,68.029055 -19.64243,73.131205 -1.26063,2.17071 -4.8412,5.73924 -7.95682,7.93007 l -5.66478,3.98333 -39.20889,0.24484 c -21.56489,0.13466 -40.69963,-0.22124 -42.52164,-0.79088 z"
   id="path3204"
   inkscape:connector-curvature="0"
   transform="matrix(0.01111111,0,0,0.01111111,-5.0091573e-7,0)" /><path
   style="fill:#ff6c2c;fill-opacity:1"
   d="m 366.61628,159.56624 c -0.87231,-0.87231 -1.56796,-3.10264 -1.54589,-4.95629 0.0221,-1.85366 6.48275,-27.45787 14.35707,-56.898251 L 393.7444,44.183731 423.863,43.827987 c 33.92527,-0.400706 41.09833,0.676055 53.3246,8.004648 17.76543,10.648837 29.24138,32.37907 27.63548,52.329055 -0.99977,12.42007 -11.66798,50.58027 -15.09983,54.01213 -2.72397,2.72396 -4.20313,2.97843 -17.31264,2.97843 -15.31951,0 -17.50623,-0.79617 -17.50623,-6.3739 0,-1.76103 2.73871,-13.6706 6.08602,-26.4657 6.66663,-25.48318 6.95899,-31.347751 1.91581,-38.430244 -5.05334,-7.096756 -9.57569,-8.616775 -25.75433,-8.656346 l -14.4483,-0.03534 -7.60315,28.416079 c -4.18174,15.62885 -8.63488,32.26093 -9.89587,36.96019 -1.26099,4.69926 -3.65197,9.90337 -5.31329,11.56468 -2.77497,2.77498 -4.18611,3.02058 -17.35478,3.02058 -9.38658,0 -14.88163,-0.54743 -15.92021,-1.58601 z"
   id="path3206"
   inkscape:connector-curvature="0"
   transform="matrix(0.01111111,0,0,0.01111111,-5.0091573e-7,0)" /><path
   style="fill:#ff6c2c;fill-opacity:1"
   d="m 531.74289,159.34269 c -10.87415,-3.93519 -21.28566,-17.93707 -21.31511,-28.66559 -0.0167,-6.07588 12.4294,-52.748063 16.3847,-61.441792 4.42348,-9.722786 10.43281,-15.839745 20.36424,-20.72897 l 8.78046,-4.322607 35.71311,0 c 39.54874,0 40.9444,0.254342 49.73411,9.06343 9.33772,9.35833 11.2971,21.418815 6.36922,39.204389 -3.1872,11.50318 -7.26348,17.45774 -14.46659,21.13249 -4.73477,2.4155 -7.81588,2.63115 -37.59127,2.63115 -25.96456,0 -32.43377,-0.34758 -32.43377,-1.74263 0,-5.05563 4.36029,-15.323719 7.98194,-18.796757 3.99694,-3.832929 4.40322,-3.920642 20.18666,-4.358138 8.85919,-0.245565 16.85107,-1.061833 17.75972,-1.81393 2.41622,-1.999914 2.09826,-9.841512 -0.43851,-10.814965 -1.14984,-0.441235 -11.19479,-0.802245 -22.32211,-0.802245 -17.33789,0 -20.62537,0.330809 -22.98534,2.312937 -1.89694,1.593229 -4.20444,7.716916 -7.41565,19.67979 -5.02887,18.734268 -5.53097,22.868178 -3.0758,25.323358 1.16721,1.1672 12.70791,1.58601 43.70445,1.58601 39.49585,0 42.07525,0.14402 41.42497,2.31294 -0.3814,1.27211 -1.85226,6.55917 -3.26857,11.74901 -3.12261,11.44229 -4.428,14.00517 -8.94193,17.55583 -3.37855,2.65757 -4.87671,2.74262 -46.59751,2.6453 -30.31567,-0.0707 -44.42559,-0.57783 -47.55142,-1.70901 l 0,0 z"
   id="path3208"
   inkscape:connector-curvature="0"
   transform="matrix(0.01111111,0,0,0.01111111,-5.0091573e-7,0)" /><path
   style="fill:#ff6c2c;fill-opacity:1"
   d="m 640.52955,159.68787 c 0.35823,-1.0119 9.31146,-34.47568 19.89607,-74.36396 10.5846,-39.888281 19.86921,-73.69099 20.63246,-75.117129 2.17599,-4.0658788 9.42223,-6.3342356 20.23465,-6.3342356 10.18841,0 15.95169,1.6241284 17.18705,4.8434219 0.94893,2.4728847 -30.34606,118.2961427 -33.78397,125.0350127 -4.33843,8.50401 -13.6384,17.43245 -22.91449,21.99906 -9.53805,4.69556 -22.36118,7.07162 -21.25177,3.93783 l 0,0 z"
   id="path3210"
   inkscape:connector-curvature="0"
   transform="matrix(0.01111111,0,0,0.01111111,-5.0091573e-7,0)" /><path
   style="fill:#ff6c2c;fill-opacity:1"
   d="m 66.330985,62.026387 0,-18.503495 19.825174,0 c 14.980801,0 19.824361,0.403698 19.821841,1.652098 -0.002,0.908653 -1.4958,7.302272 -3.31993,14.20804 -2.75481,10.429129 -4.094209,13.283538 -7.907329,16.851398 -4.476947,4.18899 -4.886035,4.295454 -16.505243,4.295454 l -11.914513,0 0,-18.503495 z"
   id="path3212"
   inkscape:connector-curvature="0"
   transform="matrix(0.01111111,0,0,0.01111111,-5.0091573e-7,0)" /><path
   style="fill:#ff6c2c;fill-opacity:1"
   d="m 735.02782,17.356182 0,-8.0168385 2.59031,0 c 1.52516,0 2.75913,0.012585 3.00084,0.030604 1.21327,0.090447 2.13977,0.3303874 2.89674,0.7501805 0.966,0.535715 1.60633,1.464157 1.84836,2.680036 0.0851,0.427363 0.12974,1.023637 0.11056,1.475643 -0.0726,1.710824 -1.00024,3.090003 -2.57432,3.827528 -0.18572,0.08701 -0.33242,0.171351 -0.32601,0.187414 0.006,0.01606 0.96627,1.612859 2.13301,3.548437 l 2.12135,3.519231 -1.46852,0.0076 c -0.80769,0.0042 -1.48185,0.0025 -1.49813,-0.0037 -0.0163,-0.0062 -0.86396,-1.438724 -1.88374,-3.183314 l -1.85413,-3.171982 -1.23393,-3.54e-4 -1.23392,-3.54e-4 0,3.183371 0,3.183371 -1.31423,0 -1.31424,0 0,-8.016837 z m 4.91094,-0.569563 c 0.83715,-0.06037 1.42234,-0.267845 1.9475,-0.690488 0.66701,-0.536788 0.97733,-1.255144 0.93081,-2.154676 -0.0633,-1.224922 -0.58757,-1.887366 -1.72243,-2.176565 -0.49978,-0.127359 -0.79852,-0.150753 -2.14602,-0.168051 l -1.29233,-0.01659 0,2.617818 0,2.617818 0.94187,-2.63e-4 c 0.51803,-1.46e-4 1.1213,-0.01319 1.3406,-0.02901 l 0,7e-6 z"
   id="path3214"
   inkscape:connector-curvature="0"
   transform="matrix(0.01111111,0,0,0.01111111,-5.0091573e-7,0)" /><path
   style="fill:#ff6c2c;fill-opacity:1"
   d="m 739.27026,30.862855 c -2.95296,-0.149032 -5.64171,-1.21092 -8.00991,-3.163416 -2.42631,-2.000395 -4.13935,-5.025686 -4.6413,-8.196672 -0.16338,-1.032135 -0.20818,-2.477963 -0.10724,-3.460821 0.25001,-2.434305 1.0981,-4.672591 2.52761,-6.6709429 0.71046,-0.9931748 1.73816,-2.0511975 2.69171,-2.7711357 l 0.163,-0.1230663 1.88548,0.00752 1.88549,0.00752 -0.38435,0.1728309 c -2.35447,1.0587382 -4.29157,2.8418019 -5.53918,5.0987143 -0.7683,1.389834 -1.22114,2.860024 -1.37633,4.468402 -0.0479,0.496866 -0.0477,1.73506 3.6e-4,2.234201 0.13694,1.420948 0.51071,2.723156 1.15681,4.030322 1.113,2.251778 2.76304,3.960381 4.97538,5.151954 1.70358,0.917556 3.52234,1.373596 5.48353,1.374951 2.77325,0.0019 5.25964,-0.892667 7.45873,-2.683593 0.40916,-0.33322 1.21132,-1.134657 1.5521,-1.5507 1.77913,-2.172093 2.68266,-4.675711 2.68266,-7.433515 0,-1.846792 -0.38691,-3.506485 -1.19877,-5.142281 -1.09649,-2.209294 -2.76418,-3.9452006 -4.94605,-5.1483746 -0.29414,-0.1621994 -1.02496,-0.512137 -1.1857,-0.5677471 -0.0241,-0.00834 0.80869,-0.016193 1.85062,-0.017461 l 1.89443,-0.00231 0.14992,0.1095196 c 0.57819,0.4223869 1.40861,1.1982567 1.9532,1.8248906 0.99402,1.143798 1.87188,2.5924926 2.44462,4.0342806 0.40161,1.011004 0.70703,2.285041 0.83755,3.493806 0.0707,0.654928 0.0716,2.15674 0.002,2.798621 -0.29861,2.739825 -1.35841,5.241758 -3.11351,7.3502 -0.35122,0.421939 -1.09232,1.161105 -1.55008,1.546053 -2.73995,2.304127 -6.00004,3.407034 -9.54243,3.228254 z"
   id="path3216"
   inkscape:connector-curvature="0"
   transform="matrix(0.01111111,0,0,0.01111111,-5.0091573e-7,0)" /></svg>